<svg width="290" height="169" viewBox="0 0 290 169" fill="none" xmlns="http://www.w3.org/2000/svg">
<path d="M0 142.238C0 141.094 0.92741 140.167 2.07143 140.167H206.452C207.596 140.167 208.524 141.094 208.524 142.238V165.714C208.524 166.858 207.596 167.786 206.452 167.786H2.07143C0.927409 167.786 0 166.858 0 165.714V142.238Z" fill="#A2A8B5"/>
<rect x="0.345238" y="140.512" width="208.31" height="27.3095" rx="1.72619" fill="#A2A8B5" stroke="#989CA7" stroke-width="0.690476"/>
<path d="M27.7887 157.422C29.2378 157.422 30.314 156.615 30.5405 155.369V155.36H29.6815L29.6721 155.369C29.4596 156.153 28.7375 156.639 27.7887 156.639C26.4766 156.639 25.6553 155.567 25.6553 153.863V153.854C25.6553 152.15 26.4766 151.074 27.784 151.074C28.7233 151.074 29.4502 151.626 29.6768 152.499L29.6815 152.509H30.5358L30.5405 152.499C30.3376 151.192 29.2189 150.29 27.784 150.29C25.9338 150.29 24.7821 151.659 24.7821 153.854V153.863C24.7821 156.054 25.9385 157.422 27.7887 157.422ZM34.9713 157.422C36.916 157.422 38.096 156.03 38.096 153.859V153.849C38.096 151.669 36.9066 150.29 34.9713 150.29C33.0456 150.29 31.8467 151.664 31.8467 153.849V153.859C31.8467 156.035 33.0172 157.422 34.9713 157.422ZM34.9713 156.639C33.5553 156.639 32.7152 155.544 32.7152 153.859V153.849C32.7152 152.15 33.5837 151.074 34.9713 151.074C36.3638 151.074 37.2275 152.15 37.2275 153.849V153.859C37.2275 155.544 36.3685 156.639 34.9713 156.639ZM39.7137 157.262H40.5538V151.98H40.6294L44.3252 157.262H45.1512V150.451H44.311V155.751H44.2355L40.5397 150.451H39.7137V157.262ZM47.0332 157.262H47.8828V154.312H50.8989V153.557H47.8828V151.216H51.1679V150.451H47.0332V157.262ZM52.7101 157.262H53.5597V150.451H52.7101V157.262ZM58.2642 157.422C60.0059 157.422 61.1576 156.308 61.1576 154.628V153.797H58.3964V154.543H60.308V154.708C60.308 155.86 59.4867 156.639 58.269 156.639C56.9001 156.639 56.0458 155.572 56.0458 153.859V153.849C56.0458 152.16 56.9143 151.074 58.2642 151.074C59.279 151.074 59.9635 151.555 60.2419 152.433L60.2561 152.48H61.1151L61.1057 152.433C60.8367 151.14 59.7747 150.29 58.2642 150.29C56.3998 150.29 55.1773 151.702 55.1773 153.849V153.859C55.1773 156.035 56.3809 157.422 58.2642 157.422ZM65.5082 157.422C67.198 157.422 68.2081 156.403 68.2081 154.921V150.451H67.3585V154.864C67.3585 155.912 66.6882 156.639 65.5082 156.639C64.3282 156.639 63.6485 155.912 63.6485 154.864V150.451H62.7989V154.921C62.7989 156.403 63.8184 157.422 65.5082 157.422ZM70.0806 157.262H70.9302V154.567H72.6058L74.0643 157.262H75.0603L73.4838 154.435C74.3381 154.166 74.8526 153.429 74.8526 152.485V152.476C74.8526 151.253 73.9935 150.451 72.6814 150.451H70.0806V157.262ZM70.9302 153.812V151.206H72.5681C73.446 151.206 73.9746 151.692 73.9746 152.504V152.514C73.9746 153.344 73.479 153.812 72.6058 153.812H70.9302ZM76.541 157.262H80.7608V156.497H77.3906V154.156H80.5861V153.401H77.3906V151.216H80.7608V150.451H76.541V157.262ZM85.3177 157.262H86.1107V152.06H86.1626L88.3149 157.262H89.0324L91.1847 152.06H91.2366V157.262H92.0296V150.451H91.0431L88.7114 156.134H88.6359L86.3042 150.451H85.3177V157.262ZM95.7854 157.262H96.6351V154.331L99.0517 150.451H98.0841L96.248 153.476H96.1725L94.3364 150.451H93.3688L95.7854 154.331V157.262ZM105.497 157.422C107.017 157.422 108.012 156.629 108.012 155.355V155.35C108.012 154.369 107.451 153.797 106.03 153.481L105.275 153.311C104.35 153.108 103.977 152.74 103.977 152.197V152.193C103.977 151.48 104.633 151.079 105.482 151.074C106.37 151.069 106.936 151.513 107.031 152.112L107.04 152.174H107.89L107.885 152.108C107.814 151.093 106.865 150.29 105.506 150.29C104.1 150.29 103.113 151.088 103.108 152.216V152.221C103.108 153.207 103.698 153.835 105.062 154.137L105.818 154.302C106.752 154.51 107.144 154.897 107.144 155.464V155.468C107.144 156.162 106.469 156.639 105.544 156.639C104.562 156.639 103.854 156.209 103.793 155.53L103.788 155.478H102.938L102.943 155.53C103.042 156.639 104.005 157.422 105.497 157.422ZM109.573 157.262H110.423V154.161H114.161V157.262H115.011V150.451H114.161V153.396H110.423V150.451H109.573V157.262ZM119.753 157.422C121.698 157.422 122.878 156.03 122.878 153.859V153.849C122.878 151.669 121.689 150.29 119.753 150.29C117.828 150.29 116.629 151.664 116.629 153.849V153.859C116.629 156.035 117.799 157.422 119.753 157.422ZM119.753 156.639C118.337 156.639 117.497 155.544 117.497 153.859V153.849C117.497 152.15 118.366 151.074 119.753 151.074C121.146 151.074 122.009 152.15 122.009 153.849V153.859C122.009 155.544 121.15 156.639 119.753 156.639ZM124.496 157.262H125.345V154.831H127.063C128.342 154.831 129.249 153.93 129.249 152.636V152.627C129.249 151.334 128.342 150.451 127.063 150.451H124.496V157.262ZM126.846 151.206C127.819 151.206 128.38 151.739 128.38 152.636V152.646C128.38 153.543 127.819 154.076 126.846 154.076H125.345V151.206H126.846ZM130.786 157.262H131.636V150.451H130.786V157.262ZM133.518 157.262H134.367V154.312H137.383V153.557H134.367V151.216H137.652V150.451H133.518V157.262ZM141.068 157.262H141.918V154.331L144.335 150.451H143.367L141.531 153.476H141.456L139.619 150.451H138.652L141.068 154.331V157.262ZM148.547 157.262H149.397V154.831H151.115C152.394 154.831 153.3 153.93 153.3 152.636V152.627C153.3 151.334 152.394 150.451 151.115 150.451H148.547V157.262ZM150.898 151.206C151.87 151.206 152.432 151.739 152.432 152.636V152.646C152.432 153.543 151.87 154.076 150.898 154.076H149.397V151.206H150.898ZM154.838 157.262H158.972V156.497H155.687V150.451H154.838V157.262ZM162.941 157.422C164.63 157.422 165.641 156.403 165.641 154.921V150.451H164.791V154.864C164.791 155.912 164.121 156.639 162.941 156.639C161.761 156.639 161.081 155.912 161.081 154.864V150.451H160.231V154.921C160.231 156.403 161.251 157.422 162.941 157.422ZM170.336 157.422C172.077 157.422 173.229 156.308 173.229 154.628V153.797H170.468V154.543H172.379V154.708C172.379 155.86 171.558 156.639 170.34 156.639C168.972 156.639 168.117 155.572 168.117 153.859V153.849C168.117 152.16 168.986 151.074 170.336 151.074C171.35 151.074 172.035 151.555 172.313 152.433L172.328 152.48H173.187L173.177 152.433C172.908 151.14 171.846 150.29 170.336 150.29C168.471 150.29 167.249 151.702 167.249 153.849V153.859C167.249 156.035 168.452 157.422 170.336 157.422ZM174.88 157.262H175.729V150.451H174.88V157.262ZM177.611 157.262H178.451V151.98H178.527L182.223 157.262H183.049V150.451H182.209V155.751H182.133L178.437 150.451H177.611V157.262Z" fill="white"/>
<rect x="219.571" y="94.5953" width="55.9286" height="24.8571" fill="#D2D5DC"/>
<path d="M232.948 109.374H234.947C235.986 109.374 236.609 108.855 236.609 108.002V107.996C236.609 107.362 236.171 106.896 235.514 106.826V106.768C235.992 106.687 236.367 106.232 236.367 105.727V105.72C236.367 104.975 235.817 104.509 234.904 104.509H232.948V109.374ZM234.728 105.126C235.288 105.126 235.615 105.393 235.615 105.851V105.858C235.615 106.33 235.268 106.58 234.6 106.58H233.703V105.126H234.728ZM234.752 107.156C235.463 107.156 235.837 107.426 235.837 107.948V107.955C235.837 108.478 235.477 108.758 234.796 108.758H233.703V107.156H234.752ZM237.684 109.374H238.439V107.503H239.505L240.496 109.374H241.369L240.277 107.385C240.87 107.186 241.221 106.654 241.221 106V105.993C241.221 105.089 240.6 104.509 239.602 104.509H237.684V109.374ZM238.439 106.89V105.143H239.505C240.088 105.143 240.445 105.474 240.445 106.013V106.02C240.445 106.573 240.108 106.89 239.528 106.89H238.439ZM244.473 109.492C245.879 109.492 246.742 108.501 246.742 106.944V106.937C246.742 105.376 245.872 104.391 244.473 104.391C243.077 104.391 242.201 105.373 242.201 106.937V106.944C242.201 108.505 243.057 109.492 244.473 109.492ZM244.473 108.825C243.536 108.825 242.973 108.083 242.973 106.944V106.937C242.973 105.787 243.553 105.059 244.473 105.059C245.394 105.059 245.97 105.787 245.97 106.937V106.944C245.97 108.083 245.397 108.825 244.473 108.825ZM248.683 109.374H249.398L250.44 105.737H250.487L251.532 109.374H252.243L253.558 104.509H252.773L251.883 108.292H251.836L250.814 104.509H250.113L249.098 108.292H249.051L248.157 104.509H247.372L248.683 109.374ZM256.207 109.492C257.34 109.492 258.065 108.913 258.065 107.982V107.979C258.065 107.257 257.647 106.846 256.625 106.627L256.096 106.509C255.466 106.374 255.209 106.138 255.209 105.777V105.774C255.209 105.315 255.631 105.049 256.201 105.049C256.791 105.046 257.172 105.335 257.236 105.733L257.242 105.777H257.974L257.971 105.73C257.917 104.975 257.242 104.391 256.211 104.391C255.179 104.391 254.451 104.971 254.447 105.811V105.814C254.447 106.532 254.872 106.991 255.86 107.2L256.393 107.315C257.037 107.453 257.3 107.695 257.3 108.07V108.073C257.3 108.525 256.858 108.835 256.238 108.835C255.587 108.835 255.118 108.552 255.078 108.11L255.075 108.073H254.333L254.336 108.117C254.404 108.936 255.108 109.492 256.207 109.492ZM259.163 109.374H262.251V108.724H259.918V107.21H262.127V106.583H259.918V105.16H262.251V104.509H259.163V109.374Z" fill="#45506B"/>
<rect y="94.5953" width="219.571" height="24.8571" fill="#F4F5F6"/>
<path d="M0 119.076H219.571" stroke="#BFC3CC" stroke-width="0.690476"/>
<path d="M3.94596 86.1129C5.39502 86.1129 6.47119 85.3057 6.69775 84.0597V84.0502H5.83871L5.82927 84.0597C5.61686 84.8432 4.89469 85.3293 3.94596 85.3293C2.63379 85.3293 1.8125 84.2579 1.8125 82.554V82.5445C1.8125 80.8406 2.63379 79.7644 3.94124 79.7644C4.88053 79.7644 5.60742 80.3167 5.83399 81.1899L5.83871 81.1993H6.69303L6.69775 81.1899C6.49479 79.8824 5.37614 78.9809 3.94124 78.9809C2.09098 78.9809 0.939292 80.3497 0.939292 82.5445V82.554C0.939292 84.7441 2.0957 86.1129 3.94596 86.1129ZM10.1104 86.0421C11.5594 86.0421 12.4562 85.0414 12.4562 83.413V83.4036C12.4562 81.7704 11.5594 80.7745 10.1104 80.7745C8.6613 80.7745 7.76449 81.7704 7.76449 83.4036V83.413C7.76449 85.0414 8.6613 86.0421 10.1104 86.0421ZM10.1104 85.3152C9.14746 85.3152 8.60466 84.6119 8.60466 83.413V83.4036C8.60466 82.2 9.14746 81.5014 10.1104 81.5014C11.0732 81.5014 11.616 82.2 11.616 83.4036V83.413C11.616 84.6119 11.0732 85.3152 10.1104 85.3152ZM13.7306 85.9524H14.5519V82.941C14.5519 82.0489 15.0664 81.5014 15.8783 81.5014C16.6901 81.5014 17.0677 81.9403 17.0677 82.856V85.9524H17.889V82.6578C17.889 81.4495 17.2518 80.7745 16.1095 80.7745C15.359 80.7745 14.8823 81.0907 14.6274 81.6288H14.5519V80.8642H13.7306V85.9524ZM19.7157 85.9524H20.5369V81.5439H21.6934V80.8642H20.5369V80.3214C20.5369 79.7644 20.7729 79.4765 21.3582 79.4765C21.5046 79.4765 21.6414 79.4812 21.7406 79.5001V78.844C21.5706 78.811 21.3913 78.7968 21.193 78.7968C20.2254 78.7968 19.7157 79.283 19.7157 80.2978V80.8642H18.8708V81.5439H19.7157V85.9524ZM23.3123 79.8824C23.6239 79.8824 23.8787 79.6275 23.8787 79.316C23.8787 79.0045 23.6239 78.7496 23.3123 78.7496C23.0008 78.7496 22.7459 79.0045 22.7459 79.316C22.7459 79.6275 23.0008 79.8824 23.3123 79.8824ZM22.897 85.9524H23.7183V80.8642H22.897V85.9524ZM25.2664 85.9524H26.0877V82.7994C26.0877 82.0536 26.6447 81.558 27.4282 81.558C27.6076 81.558 27.7633 81.5769 27.9333 81.6052V80.8075C27.853 80.7934 27.6784 80.7745 27.5226 80.7745C26.8335 80.7745 26.3568 81.086 26.1632 81.6194H26.0877V80.8642H25.2664V85.9524ZM29.0425 85.9524H29.8638V82.7994C29.8638 82.082 30.3688 81.5014 31.0343 81.5014C31.6763 81.5014 32.0916 81.8931 32.0916 82.4973V85.9524H32.9129V82.6814C32.9129 82.0347 33.3802 81.5014 34.0882 81.5014C34.8057 81.5014 35.1502 81.8743 35.1502 82.6248V85.9524H35.9715V82.436C35.9715 81.3692 35.391 80.7745 34.3525 80.7745C33.6493 80.7745 33.0687 81.1285 32.7949 81.6666H32.7194C32.4834 81.1379 32.002 80.7745 31.3128 80.7745C30.6473 80.7745 30.1659 81.0907 29.9393 81.6383H29.8638V80.8642H29.0425V85.9524ZM40.1818 87.6516H41.0031V85.15H41.0786C41.3571 85.6928 41.966 86.0421 42.6645 86.0421C43.9578 86.0421 44.798 85.0084 44.798 83.413V83.4036C44.798 81.8176 43.9531 80.7745 42.6645 80.7745C41.9565 80.7745 41.3901 81.1096 41.0786 81.676H41.0031V80.8642H40.1818V87.6516ZM42.4757 85.3152C41.5506 85.3152 40.9842 84.5883 40.9842 83.413V83.4036C40.9842 82.2283 41.5506 81.5014 42.4757 81.5014C43.4056 81.5014 43.9578 82.2188 43.9578 83.4036V83.413C43.9578 84.5977 43.4056 85.3152 42.4757 85.3152ZM46.1291 85.9524H46.9504V78.844H46.1291V85.9524ZM50.2308 86.0421C50.9766 86.0421 51.491 85.7353 51.7412 85.1925H51.8167V85.9524H52.638V80.8642H51.8167V83.8756C51.8167 84.7677 51.34 85.3152 50.4432 85.3152C49.6313 85.3152 49.3009 84.8762 49.3009 83.9605V80.8642H48.4797V84.1588C48.4797 85.3624 49.0744 86.0421 50.2308 86.0421ZM56.2677 87.746C57.6554 87.746 58.5334 87.0191 58.5334 85.8816V80.8642H57.7121V81.7043H57.6554C57.3439 81.1285 56.7869 80.7745 56.0695 80.7745C54.7384 80.7745 53.9172 81.8082 53.9172 83.2336V83.2431C53.9172 84.6685 54.7337 85.6881 56.0506 85.6881C56.7492 85.6881 57.325 85.3718 57.646 84.8101H57.7215V85.8391C57.7215 86.5896 57.1787 87.0191 56.2677 87.0191C55.5361 87.0191 55.083 86.7454 54.9933 86.3583L54.9886 86.3536H54.139L54.1296 86.3583C54.257 87.1938 55.0405 87.746 56.2677 87.746ZM56.23 84.9612C55.286 84.9612 54.7573 84.2532 54.7573 83.2431V83.2336C54.7573 82.2236 55.286 81.5014 56.23 81.5014C57.1693 81.5014 57.7404 82.2236 57.7404 83.2336V83.2431C57.7404 84.2532 57.174 84.9612 56.23 84.9612ZM60.4969 79.8824C60.8084 79.8824 61.0633 79.6275 61.0633 79.316C61.0633 79.0045 60.8084 78.7496 60.4969 78.7496C60.1854 78.7496 59.9305 79.0045 59.9305 79.316C59.9305 79.6275 60.1854 79.8824 60.4969 79.8824ZM60.0815 85.9524H60.9028V80.8642H60.0815V85.9524ZM62.451 85.9524H63.2723V82.941C63.2723 82.0489 63.7868 81.5014 64.5986 81.5014C65.4105 81.5014 65.7881 81.9403 65.7881 82.856V85.9524H66.6094V82.6578C66.6094 81.4495 65.9722 80.7745 64.8299 80.7745C64.0794 80.7745 63.6027 81.0907 63.3478 81.6288H63.2723V80.8642H62.451V85.9524Z" fill="#8A92A2"/>
<path d="M2.63851 37.6191H3.48812V31.5727H5.68294V30.808H0.443685V31.5727H2.63851V37.6191ZM8.03825 37.7088C9.4873 37.7088 10.3841 36.7081 10.3841 35.0797V35.0703C10.3841 33.4371 9.4873 32.4412 8.03825 32.4412C6.58919 32.4412 5.69238 33.4371 5.69238 35.0703V35.0797C5.69238 36.7081 6.58919 37.7088 8.03825 37.7088ZM8.03825 36.9819C7.07536 36.9819 6.53255 36.2786 6.53255 35.0797V35.0703C6.53255 33.8666 7.07536 33.1681 8.03825 33.1681C9.00114 33.1681 9.54394 33.8666 9.54394 35.0703V35.0797C9.54394 36.2786 9.00114 36.9819 8.03825 36.9819ZM14.3867 39.3183H15.208V36.8167H15.2835C15.562 37.3595 16.1709 37.7088 16.8695 37.7088C18.1628 37.7088 19.0029 36.6751 19.0029 35.0797V35.0703C19.0029 33.4843 18.158 32.4412 16.8695 32.4412C16.1615 32.4412 15.5951 32.7763 15.2835 33.3427H15.208V32.5309H14.3867V39.3183ZM16.6807 36.9819C15.7555 36.9819 15.1891 36.255 15.1891 35.0797V35.0703C15.1891 33.895 15.7555 33.1681 16.6807 33.1681C17.6105 33.1681 18.1628 33.8855 18.1628 35.0703V35.0797C18.1628 36.2644 17.6105 36.9819 16.6807 36.9819ZM20.2868 37.6191H21.1081V34.4661C21.1081 33.7203 21.665 33.2247 22.4486 33.2247C22.6279 33.2247 22.7837 33.2436 22.9536 33.2719V32.4742C22.8734 32.4601 22.6987 32.4412 22.543 32.4412C21.8538 32.4412 21.3771 32.7527 21.1836 33.2861H21.1081V32.5309H20.2868V37.6191ZM25.9178 37.7088C27.3669 37.7088 28.2637 36.7081 28.2637 35.0797V35.0703C28.2637 33.4371 27.3669 32.4412 25.9178 32.4412C24.4687 32.4412 23.5719 33.4371 23.5719 35.0703V35.0797C23.5719 36.7081 24.4687 37.7088 25.9178 37.7088ZM25.9178 36.9819C24.9549 36.9819 24.4121 36.2786 24.4121 35.0797V35.0703C24.4121 33.8666 24.9549 33.1681 25.9178 33.1681C26.8807 33.1681 27.4235 33.8666 27.4235 35.0703V35.0797C27.4235 36.2786 26.8807 36.9819 25.9178 36.9819ZM31.6196 37.7088C32.8421 37.7088 33.5265 37.0527 33.7342 36.1323L33.7437 36.0803L32.9318 36.0851L32.9224 36.1134C32.7336 36.6798 32.2993 36.9819 31.6149 36.9819C30.7087 36.9819 30.1234 36.2314 30.1234 35.0608V35.0514C30.1234 33.9044 30.6992 33.1681 31.6149 33.1681C32.3465 33.1681 32.7996 33.574 32.9271 34.0743L32.9318 34.0885H33.7484L33.7437 34.0602C33.5926 33.1539 32.8516 32.4412 31.6149 32.4412C30.1895 32.4412 29.2832 33.4702 29.2832 35.0514V35.0608C29.2832 36.6751 30.1942 37.7088 31.6196 37.7088ZM37.0241 37.7088C38.223 37.7088 38.9499 37.0291 39.1245 36.3399L39.1339 36.3022H38.3127L38.2938 36.3447C38.1569 36.6515 37.7321 36.9772 37.043 36.9772C36.1367 36.9772 35.5561 36.3635 35.5325 35.311H39.1953V34.99C39.1953 33.4702 38.3551 32.4412 36.9722 32.4412C35.5892 32.4412 34.6924 33.5174 34.6924 35.0891V35.0939C34.6924 36.6892 35.5703 37.7088 37.0241 37.7088ZM36.9674 33.1728C37.7179 33.1728 38.2749 33.6495 38.3599 34.6549H35.5467C35.6364 33.6873 36.2122 33.1728 36.9674 33.1728ZM42.5465 37.7088C43.7454 37.7088 44.4723 37.0291 44.647 36.3399L44.6564 36.3022H43.8351L43.8162 36.3447C43.6794 36.6515 43.2546 36.9772 42.5654 36.9772C41.6592 36.9772 41.0786 36.3635 41.055 35.311H44.7178V34.99C44.7178 33.4702 43.8776 32.4412 42.4946 32.4412C41.1116 32.4412 40.2148 33.5174 40.2148 35.0891V35.0939C40.2148 36.6892 41.0928 37.7088 42.5465 37.7088ZM42.4899 33.1728C43.2404 33.1728 43.7974 33.6495 43.8823 34.6549H41.0692C41.1589 33.6873 41.7347 33.1728 42.4899 33.1728ZM47.8708 37.7088C48.5788 37.7088 49.1452 37.3736 49.4567 36.8072H49.5322V37.6191H50.3535V30.5107H49.5322V33.3333H49.4567C49.1782 32.7905 48.5693 32.4412 47.8708 32.4412C46.5775 32.4412 45.7373 33.4749 45.7373 35.0703V35.0797C45.7373 36.6656 46.5822 37.7088 47.8708 37.7088ZM48.0596 36.9819C47.1297 36.9819 46.5775 36.2644 46.5775 35.0797V35.0703C46.5775 33.8855 47.1297 33.1681 48.0596 33.1681C48.9847 33.1681 49.5511 33.895 49.5511 35.0703V35.0797C49.5511 36.255 48.9847 36.9819 48.0596 36.9819ZM55.64 37.6191H56.4613L57.5941 33.6826H57.6696L58.8071 37.6191H59.6331L61.0586 32.5309H60.242L59.2414 36.5995H59.1658L58.0283 32.5309H57.2495L56.112 36.5995H56.0365L55.0358 32.5309H54.2145L55.64 37.6191ZM62.5784 31.5491C62.89 31.5491 63.1449 31.2942 63.1449 30.9827C63.1449 30.6712 62.89 30.4163 62.5784 30.4163C62.2669 30.4163 62.012 30.6712 62.012 30.9827C62.012 31.2942 62.2669 31.5491 62.5784 31.5491ZM62.1631 37.6191H62.9844V32.5309H62.1631V37.6191ZM66.3403 37.6568C66.5008 37.6568 66.6566 37.638 66.8171 37.6096V36.9111C66.666 36.9252 66.5858 36.93 66.4394 36.93C65.9108 36.93 65.7031 36.6892 65.7031 36.0898V33.2106H66.8171V32.5309H65.7031V31.214H64.8535V32.5309H64.0511V33.2106H64.8535V36.2975C64.8535 37.2698 65.2925 37.6568 66.3403 37.6568ZM68.0915 37.6191H68.9128V34.6077C68.9128 33.7156 69.4272 33.1681 70.2391 33.1681C71.0509 33.1681 71.4285 33.607 71.4285 34.5227V37.6191H72.2498V34.3245C72.2498 33.1162 71.6126 32.4412 70.4704 32.4412C69.7199 32.4412 69.2432 32.7574 68.9883 33.2955H68.9128V30.5107H68.0915V37.6191ZM78.5464 37.7088C79.7689 37.7088 80.4533 37.0527 80.661 36.1323L80.6704 36.0803L79.8586 36.0851L79.8491 36.1134C79.6603 36.6798 79.2261 36.9819 78.5417 36.9819C77.6354 36.9819 77.0501 36.2314 77.0501 35.0608V35.0514C77.0501 33.9044 77.626 33.1681 78.5417 33.1681C79.2733 33.1681 79.7264 33.574 79.8538 34.0743L79.8586 34.0885H80.6751L80.6704 34.0602C80.5194 33.1539 79.7783 32.4412 78.5417 32.4412C77.1162 32.4412 76.21 33.4702 76.21 35.0514V35.0608C76.21 36.6751 77.1209 37.7088 78.5464 37.7088ZM83.965 37.7088C85.4141 37.7088 86.3109 36.7081 86.3109 35.0797V35.0703C86.3109 33.4371 85.4141 32.4412 83.965 32.4412C82.5159 32.4412 81.6191 33.4371 81.6191 35.0703V35.0797C81.6191 36.7081 82.5159 37.7088 83.965 37.7088ZM83.965 36.9819C83.0021 36.9819 82.4593 36.2786 82.4593 35.0797V35.0703C82.4593 33.8666 83.0021 33.1681 83.965 33.1681C84.9279 33.1681 85.4707 33.8666 85.4707 35.0703V35.0797C85.4707 36.2786 84.9279 36.9819 83.965 36.9819ZM87.5853 37.6191H88.4066V34.6077C88.4066 33.7156 88.9211 33.1681 89.7329 33.1681C90.5448 33.1681 90.9224 33.607 90.9224 34.5227V37.6191H91.7436V34.3245C91.7436 33.1162 91.1064 32.4412 89.9642 32.4412C89.2137 32.4412 88.737 32.7574 88.4821 33.2955H88.4066V32.5309H87.5853V37.6191ZM93.5703 37.6191H94.3916V33.2106H95.548V32.5309H94.3916V31.9881C94.3916 31.4311 94.6276 31.1432 95.2129 31.1432C95.3592 31.1432 95.4961 31.1479 95.5952 31.1668V30.5107C95.4253 30.4776 95.2459 30.4635 95.0477 30.4635C94.0801 30.4635 93.5703 30.9496 93.5703 31.9645V32.5309H92.7254V33.2106H93.5703V37.6191ZM97.167 31.5491C97.4785 31.5491 97.7334 31.2942 97.7334 30.9827C97.7334 30.6712 97.4785 30.4163 97.167 30.4163C96.8555 30.4163 96.6006 30.6712 96.6006 30.9827C96.6006 31.2942 96.8555 31.5491 97.167 31.5491ZM96.7516 37.6191H97.5729V32.5309H96.7516V37.6191ZM101.217 39.4127C102.604 39.4127 103.482 38.6858 103.482 37.5483V32.5309H102.661V33.371H102.604C102.293 32.7952 101.736 32.4412 101.019 32.4412C99.6875 32.4412 98.8662 33.4749 98.8662 34.9003V34.9098C98.8662 36.3352 99.6828 37.3548 101 37.3548C101.698 37.3548 102.274 37.0385 102.595 36.4768H102.671V37.5058C102.671 38.2563 102.128 38.6858 101.217 38.6858C100.485 38.6858 100.032 38.412 99.9424 38.025L99.9377 38.0203H99.088L99.0786 38.025C99.206 38.8605 99.9896 39.4127 101.217 39.4127ZM101.179 36.6279C100.235 36.6279 99.7064 35.9199 99.7064 34.9098V34.9003C99.7064 33.8902 100.235 33.1681 101.179 33.1681C102.118 33.1681 102.689 33.8902 102.689 34.9003V34.9098C102.689 35.9199 102.123 36.6279 101.179 36.6279ZM106.716 37.7088C107.461 37.7088 107.976 37.402 108.226 36.8592H108.302V37.6191H109.123V32.5309H108.302V35.5423C108.302 36.4343 107.825 36.9819 106.928 36.9819C106.116 36.9819 105.786 36.5429 105.786 35.6272V32.5309H104.965V35.8255C104.965 37.0291 105.559 37.7088 106.716 37.7088ZM110.657 37.6191H111.478V34.4661C111.478 33.7203 112.035 33.2247 112.819 33.2247C112.998 33.2247 113.154 33.2436 113.324 33.2719V32.4742C113.243 32.4601 113.069 32.4412 112.913 32.4412C112.224 32.4412 111.747 32.7527 111.554 33.2861H111.478V32.5309H110.657V37.6191ZM115.736 37.7088C116.42 37.7088 116.953 37.4114 117.274 36.8686H117.35V37.6191H118.171V34.1357C118.171 33.0784 117.477 32.4412 116.236 32.4412C115.15 32.4412 114.376 32.9793 114.244 33.777L114.239 33.8053H115.061L115.065 33.7911C115.198 33.3946 115.599 33.1681 116.208 33.1681C116.968 33.1681 117.35 33.5079 117.35 34.1357V34.5982L115.891 34.6879C114.707 34.7587 114.036 35.2827 114.036 36.1889V36.1983C114.036 37.1235 114.768 37.7088 115.736 37.7088ZM114.877 36.1795V36.17C114.877 35.665 115.216 35.3912 115.991 35.344L117.35 35.2591V35.7216C117.35 36.4485 116.741 36.996 115.906 36.996C115.316 36.996 114.877 36.6939 114.877 36.1795ZM121.48 37.6568C121.64 37.6568 121.796 37.638 121.957 37.6096V36.9111C121.806 36.9252 121.725 36.93 121.579 36.93C121.05 36.93 120.843 36.6892 120.843 36.0898V33.2106H121.957V32.5309H120.843V31.214H119.993V32.5309H119.191V33.2106H119.993V36.2975C119.993 37.2698 120.432 37.6568 121.48 37.6568ZM123.618 31.5491C123.93 31.5491 124.185 31.2942 124.185 30.9827C124.185 30.6712 123.93 30.4163 123.618 30.4163C123.307 30.4163 123.052 30.6712 123.052 30.9827C123.052 31.2942 123.307 31.5491 123.618 31.5491ZM123.203 37.6191H124.024V32.5309H123.203V37.6191ZM127.663 37.7088C129.112 37.7088 130.009 36.7081 130.009 35.0797V35.0703C130.009 33.4371 129.112 32.4412 127.663 32.4412C126.214 32.4412 125.317 33.4371 125.317 35.0703V35.0797C125.317 36.7081 126.214 37.7088 127.663 37.7088ZM127.663 36.9819C126.7 36.9819 126.158 36.2786 126.158 35.0797V35.0703C126.158 33.8666 126.7 33.1681 127.663 33.1681C128.626 33.1681 129.169 33.8666 129.169 35.0703V35.0797C129.169 36.2786 128.626 36.9819 127.663 36.9819ZM131.284 37.6191H132.105V34.6077C132.105 33.7156 132.619 33.1681 133.431 33.1681C134.243 33.1681 134.621 33.607 134.621 34.5227V37.6191H135.442V34.3245C135.442 33.1162 134.805 32.4412 133.662 32.4412C132.912 32.4412 132.435 32.7574 132.18 33.2955H132.105V32.5309H131.284V37.6191ZM136.721 39.3513H137.33L138.071 36.6656H137.132L136.721 39.3513ZM142.527 39.3183H143.348V36.8167H143.423C143.702 37.3595 144.311 37.7088 145.009 37.7088C146.303 37.7088 147.143 36.6751 147.143 35.0797V35.0703C147.143 33.4843 146.298 32.4412 145.009 32.4412C144.301 32.4412 143.735 32.7763 143.423 33.3427H143.348V32.5309H142.527V39.3183ZM144.821 36.9819C143.896 36.9819 143.329 36.255 143.329 35.0797V35.0703C143.329 33.895 143.896 33.1681 144.821 33.1681C145.75 33.1681 146.303 33.8855 146.303 35.0703V35.0797C146.303 36.2644 145.75 36.9819 144.821 36.9819ZM148.474 37.6191H149.295V30.5107H148.474V37.6191ZM152.949 37.7088C154.147 37.7088 154.874 37.0291 155.049 36.3399L155.058 36.3022H154.237L154.218 36.3447C154.081 36.6515 153.657 36.9772 152.967 36.9772C152.061 36.9772 151.481 36.3635 151.457 35.311H155.12V34.99C155.12 33.4702 154.28 32.4412 152.897 32.4412C151.514 32.4412 150.617 33.5174 150.617 35.0891V35.0939C150.617 36.6892 151.495 37.7088 152.949 37.7088ZM152.892 33.1728C153.642 33.1728 154.199 33.6495 154.284 34.6549H151.471C151.561 33.6873 152.137 33.1728 152.892 33.1728ZM157.791 37.7088C158.476 37.7088 159.009 37.4114 159.33 36.8686H159.406V37.6191H160.227V34.1357C160.227 33.0784 159.533 32.4412 158.292 32.4412C157.206 32.4412 156.432 32.9793 156.3 33.777L156.295 33.8053H157.116L157.121 33.7911C157.253 33.3946 157.654 33.1681 158.263 33.1681C159.023 33.1681 159.406 33.5079 159.406 34.1357V34.5982L157.947 34.6879C156.762 34.7587 156.092 35.2827 156.092 36.1889V36.1983C156.092 37.1235 156.824 37.7088 157.791 37.7088ZM156.932 36.1795V36.17C156.932 35.665 157.272 35.3912 158.046 35.344L159.406 35.2591V35.7216C159.406 36.4485 158.797 36.996 157.961 36.996C157.371 36.996 156.932 36.6939 156.932 36.1795ZM163.474 37.7088C164.631 37.7088 165.513 37.081 165.513 36.1747V36.1653C165.513 35.4384 165.051 35.0231 164.093 34.7918L163.309 34.603C162.71 34.4566 162.455 34.2395 162.455 33.895V33.8855C162.455 33.4371 162.898 33.1256 163.503 33.1256C164.116 33.1256 164.513 33.4041 164.621 33.8053H165.428C165.315 32.9745 164.574 32.4412 163.507 32.4412C162.426 32.4412 161.615 33.0784 161.615 33.9233V33.928C161.615 34.6596 162.044 35.075 162.998 35.3015L163.786 35.4903C164.414 35.6414 164.673 35.8821 164.673 36.2267V36.2361C164.673 36.6987 164.187 37.0244 163.503 37.0244C162.851 37.0244 162.445 36.7459 162.308 36.3211H161.468C161.563 37.1612 162.341 37.7088 163.474 37.7088ZM168.865 37.7088C170.063 37.7088 170.79 37.0291 170.965 36.3399L170.974 36.3022H170.153L170.134 36.3447C169.997 36.6515 169.573 36.9772 168.883 36.9772C167.977 36.9772 167.397 36.3635 167.373 35.311H171.036V34.99C171.036 33.4702 170.196 32.4412 168.813 32.4412C167.43 32.4412 166.533 33.5174 166.533 35.0891V35.0939C166.533 36.6892 167.411 37.7088 168.865 37.7088ZM168.808 33.1728C169.558 33.1728 170.115 33.6495 170.2 34.6549H167.387C167.477 33.6873 168.053 33.1728 168.808 33.1728ZM172.103 39.3513H172.711L173.452 36.6656H172.513L172.103 39.3513ZM179.612 37.7088C180.358 37.7088 180.872 37.402 181.123 36.8592H181.198V37.6191H182.019V32.5309H181.198V35.5423C181.198 36.4343 180.721 36.9819 179.825 36.9819C179.013 36.9819 178.682 36.5429 178.682 35.6272V32.5309H177.861V35.8255C177.861 37.0291 178.456 37.7088 179.612 37.7088ZM183.553 39.3183H184.375V36.8167H184.45C184.729 37.3595 185.338 37.7088 186.036 37.7088C187.329 37.7088 188.17 36.6751 188.17 35.0797V35.0703C188.17 33.4843 187.325 32.4412 186.036 32.4412C185.328 32.4412 184.762 32.7763 184.45 33.3427H184.375V32.5309H183.553V39.3183ZM185.847 36.9819C184.922 36.9819 184.356 36.255 184.356 35.0797V35.0703C184.356 33.895 184.922 33.1681 185.847 33.1681C186.777 33.1681 187.329 33.8855 187.329 35.0703V35.0797C187.329 36.2644 186.777 36.9819 185.847 36.9819ZM189.501 37.6191H190.322V30.5107H189.501V37.6191ZM193.989 37.7088C195.438 37.7088 196.335 36.7081 196.335 35.0797V35.0703C196.335 33.4371 195.438 32.4412 193.989 32.4412C192.54 32.4412 191.644 33.4371 191.644 35.0703V35.0797C191.644 36.7081 192.54 37.7088 193.989 37.7088ZM193.989 36.9819C193.027 36.9819 192.484 36.2786 192.484 35.0797V35.0703C192.484 33.8666 193.027 33.1681 193.989 33.1681C194.952 33.1681 195.495 33.8666 195.495 35.0703V35.0797C195.495 36.2786 194.952 36.9819 193.989 36.9819ZM199.007 37.7088C199.691 37.7088 200.225 37.4114 200.546 36.8686H200.621V37.6191H201.442V34.1357C201.442 33.0784 200.749 32.4412 199.507 32.4412C198.422 32.4412 197.647 32.9793 197.515 33.777L197.511 33.8053H198.332L198.337 33.7911C198.469 33.3946 198.87 33.1681 199.479 33.1681C200.239 33.1681 200.621 33.5079 200.621 34.1357V34.5982L199.163 34.6879C197.978 34.7587 197.308 35.2827 197.308 36.1889V36.1983C197.308 37.1235 198.039 37.7088 199.007 37.7088ZM198.148 36.1795V36.17C198.148 35.665 198.488 35.3912 199.262 35.344L200.621 35.2591V35.7216C200.621 36.4485 200.012 36.996 199.177 36.996C198.587 36.996 198.148 36.6939 198.148 36.1795ZM204.822 37.7088C205.53 37.7088 206.096 37.3736 206.408 36.8072H206.483V37.6191H207.305V30.5107H206.483V33.3333H206.408C206.129 32.7905 205.52 32.4412 204.822 32.4412C203.529 32.4412 202.688 33.4749 202.688 35.0703V35.0797C202.688 36.6656 203.533 37.7088 204.822 37.7088ZM205.011 36.9819C204.081 36.9819 203.529 36.2644 203.529 35.0797V35.0703C203.529 33.8855 204.081 33.1681 205.011 33.1681C205.936 33.1681 206.502 33.895 206.502 35.0703V35.0797C206.502 36.255 205.936 36.9819 205.011 36.9819ZM212.044 39.4033C212.945 39.4033 213.365 39.0729 213.785 37.9306L215.772 32.5309H214.909L213.516 36.7175H213.441L212.044 32.5309H211.166L213.049 37.6238L212.955 37.9259C212.77 38.5112 212.487 38.7236 212.02 38.7236C211.907 38.7236 211.779 38.7189 211.68 38.7V39.3749C211.793 39.3938 211.935 39.4033 212.044 39.4033ZM218.76 37.7088C220.209 37.7088 221.106 36.7081 221.106 35.0797V35.0703C221.106 33.4371 220.209 32.4412 218.76 32.4412C217.311 32.4412 216.414 33.4371 216.414 35.0703V35.0797C216.414 36.7081 217.311 37.7088 218.76 37.7088ZM218.76 36.9819C217.797 36.9819 217.255 36.2786 217.255 35.0797V35.0703C217.255 33.8666 217.797 33.1681 218.76 33.1681C219.723 33.1681 220.266 33.8666 220.266 35.0703V35.0797C220.266 36.2786 219.723 36.9819 218.76 36.9819ZM224.084 37.7088C224.83 37.7088 225.345 37.402 225.595 36.8592H225.67V37.6191H226.492V32.5309H225.67V35.5423C225.67 36.4343 225.194 36.9819 224.297 36.9819C223.485 36.9819 223.155 36.5429 223.155 35.6272V32.5309H222.333V35.8255C222.333 37.0291 222.928 37.7088 224.084 37.7088ZM228.026 37.6191H228.847V34.4661C228.847 33.7203 229.404 33.2247 230.187 33.2247C230.367 33.2247 230.523 33.2436 230.693 33.2719V32.4742C230.612 32.4601 230.438 32.4412 230.282 32.4412C229.593 32.4412 229.116 32.7527 228.923 33.2861H228.847V32.5309H228.026V37.6191ZM2.84619 51.7088C4.06868 51.7088 4.75309 51.0527 4.96077 50.1323L4.97021 50.0803L4.15837 50.0851L4.14893 50.1134C3.96012 50.6798 3.52588 50.9819 2.84147 50.9819C1.93522 50.9819 1.34993 50.2314 1.34993 49.0608V49.0514C1.34993 47.9044 1.92578 47.1681 2.84147 47.1681C3.57308 47.1681 4.0262 47.574 4.15365 48.0743L4.15837 48.0885H4.97493L4.97021 48.0602C4.81917 47.1539 4.07812 46.4412 2.84147 46.4412C1.41602 46.4412 0.509766 47.4702 0.509766 49.0514V49.0608C0.509766 50.6751 1.42074 51.7088 2.84619 51.7088ZM8.26481 51.7088C9.71387 51.7088 10.6107 50.7081 10.6107 49.0797V49.0703C10.6107 47.4371 9.71387 46.4412 8.26481 46.4412C6.81575 46.4412 5.91894 47.4371 5.91894 49.0703V49.0797C5.91894 50.7081 6.81575 51.7088 8.26481 51.7088ZM8.26481 50.9819C7.30192 50.9819 6.75911 50.2786 6.75911 49.0797V49.0703C6.75911 47.8666 7.30192 47.1681 8.26481 47.1681C9.2277 47.1681 9.77051 47.8666 9.77051 49.0703V49.0797C9.77051 50.2786 9.2277 50.9819 8.26481 50.9819ZM11.8851 51.6191H12.7064V48.6077C12.7064 47.7156 13.2209 47.1681 14.0327 47.1681C14.8446 47.1681 15.2222 47.607 15.2222 48.5227V51.6191H16.0435V48.3245C16.0435 47.1162 15.4062 46.4412 14.264 46.4412C13.5135 46.4412 13.0368 46.7574 12.7819 47.2955H12.7064V46.5309H11.8851V51.6191ZM17.8701 51.6191H18.6914V47.2106H19.8478V46.5309H18.6914V45.9881C18.6914 45.4311 18.9274 45.1432 19.5127 45.1432C19.659 45.1432 19.7959 45.1479 19.895 45.1668V44.5107C19.7251 44.4776 19.5457 44.4635 19.3475 44.4635C18.3799 44.4635 17.8701 44.9496 17.8701 45.9645V46.5309H17.0252V47.2106H17.8701V51.6191ZM21.4668 45.5491C21.7783 45.5491 22.0332 45.2942 22.0332 44.9827C22.0332 44.6712 21.7783 44.4163 21.4668 44.4163C21.1553 44.4163 20.9004 44.6712 20.9004 44.9827C20.9004 45.2942 21.1553 45.5491 21.4668 45.5491ZM21.0514 51.6191H21.8727V46.5309H21.0514V51.6191ZM25.5166 53.4127C26.9043 53.4127 27.7822 52.6858 27.7822 51.5483V46.5309H26.9609V47.371H26.9043C26.5928 46.7952 26.0358 46.4412 25.3184 46.4412C23.9873 46.4412 23.166 47.4749 23.166 48.9003V48.9098C23.166 50.3352 23.9826 51.3548 25.2995 51.3548C25.998 51.3548 26.5739 51.0385 26.8949 50.4768H26.9704V51.5058C26.9704 52.2563 26.4276 52.6858 25.5166 52.6858C24.785 52.6858 24.3319 52.412 24.2422 52.025L24.2375 52.0203H23.3879L23.3784 52.025C23.5059 52.8605 24.2894 53.4127 25.5166 53.4127ZM25.4788 50.6279C24.5348 50.6279 24.0062 49.9199 24.0062 48.9098V48.9003C24.0062 47.8902 24.5348 47.1681 25.4788 47.1681C26.4181 47.1681 26.9893 47.8902 26.9893 48.9003V48.9098C26.9893 49.9199 26.4228 50.6279 25.4788 50.6279ZM31.0155 51.7088C31.7612 51.7088 32.2757 51.402 32.5259 50.8592H32.6014V51.6191H33.4227V46.5309H32.6014V49.5423C32.6014 50.4343 32.1247 50.9819 31.2279 50.9819C30.416 50.9819 30.0856 50.5429 30.0856 49.6272V46.5309H29.2643V49.8255C29.2643 51.0291 29.859 51.7088 31.0155 51.7088ZM34.9567 51.6191H35.778V48.4661C35.778 47.7203 36.335 47.2247 37.1185 47.2247C37.2978 47.2247 37.4536 47.2436 37.6235 47.2719V46.4742C37.5433 46.4601 37.3686 46.4412 37.2129 46.4412C36.5238 46.4412 36.047 46.7527 35.8535 47.2861H35.778V46.5309H34.9567V51.6191ZM40.0355 51.7088C40.7199 51.7088 41.2533 51.4114 41.5742 50.8686H41.6497V51.6191H42.471V48.1357C42.471 47.0784 41.7772 46.4412 40.5358 46.4412C39.4502 46.4412 38.6761 46.9793 38.5439 47.777L38.5392 47.8053H39.3605L39.3652 47.7911C39.4974 47.3946 39.8986 47.1681 40.5075 47.1681C41.2674 47.1681 41.6497 47.5079 41.6497 48.1357V48.5982L40.1912 48.6879C39.0065 48.7587 38.3363 49.2827 38.3363 50.1889V50.1983C38.3363 51.1235 39.0679 51.7088 40.0355 51.7088ZM39.1764 50.1795V50.17C39.1764 49.665 39.5163 49.3912 40.2904 49.344L41.6497 49.2591V49.7216C41.6497 50.4485 41.0409 50.996 40.2054 50.996C39.6154 50.996 39.1764 50.6939 39.1764 50.1795ZM45.7798 51.6568C45.9403 51.6568 46.096 51.638 46.2565 51.6096V50.9111C46.1055 50.9252 46.0252 50.93 45.8789 50.93C45.3503 50.93 45.1426 50.6892 45.1426 50.0898V47.2106H46.2565V46.5309H45.1426V45.214H44.293V46.5309H43.4906V47.2106H44.293V50.2975C44.293 51.2698 44.7319 51.6568 45.7798 51.6568ZM47.918 45.5491C48.2295 45.5491 48.4844 45.2942 48.4844 44.9827C48.4844 44.6712 48.2295 44.4163 47.918 44.4163C47.6064 44.4163 47.3516 44.6712 47.3516 44.9827C47.3516 45.2942 47.6064 45.5491 47.918 45.5491ZM47.5026 51.6191H48.3239V46.5309H47.5026V51.6191ZM51.963 51.7088C53.4121 51.7088 54.3089 50.7081 54.3089 49.0797V49.0703C54.3089 47.4371 53.4121 46.4412 51.963 46.4412C50.514 46.4412 49.6172 47.4371 49.6172 49.0703V49.0797C49.6172 50.7081 50.514 51.7088 51.963 51.7088ZM51.963 50.9819C51.0002 50.9819 50.4574 50.2786 50.4574 49.0797V49.0703C50.4574 47.8666 51.0002 47.1681 51.963 47.1681C52.9259 47.1681 53.4687 47.8666 53.4687 49.0703V49.0797C53.4687 50.2786 52.9259 50.9819 51.963 50.9819ZM55.5833 51.6191H56.4046V48.6077C56.4046 47.7156 56.9191 47.1681 57.731 47.1681C58.5428 47.1681 58.9204 47.607 58.9204 48.5227V51.6191H59.7417V48.3245C59.7417 47.1162 59.1045 46.4412 57.9622 46.4412C57.2117 46.4412 56.735 46.7574 56.4801 47.2955H56.4046V46.5309H55.5833V51.6191ZM64.2965 51.6191H65.1178V47.2106H66.2742V46.5309H65.1178V45.9881C65.1178 45.4311 65.3538 45.1432 65.9391 45.1432C66.0854 45.1432 66.2223 45.1479 66.3214 45.1668V44.5107C66.1515 44.4776 65.9722 44.4635 65.7739 44.4635C64.8063 44.4635 64.2965 44.9496 64.2965 45.9645V46.5309H63.4517V47.2106H64.2965V51.6191ZM67.8932 45.5491C68.2048 45.5491 68.4596 45.2942 68.4596 44.9827C68.4596 44.6712 68.2048 44.4163 67.8932 44.4163C67.5817 44.4163 67.3268 44.6712 67.3268 44.9827C67.3268 45.2942 67.5817 45.5491 67.8932 45.5491ZM67.4779 51.6191H68.2992V46.5309H67.4779V51.6191ZM69.8945 51.6191H70.7158V44.5107H69.8945V51.6191ZM74.3691 51.7088C75.568 51.7088 76.2949 51.0291 76.4696 50.3399L76.479 50.3022H75.6577L75.6388 50.3447C75.5019 50.6515 75.0771 50.9772 74.388 50.9772C73.4818 50.9772 72.9012 50.3635 72.8776 49.311H76.5404V48.99C76.5404 47.4702 75.7002 46.4412 74.3172 46.4412C72.9342 46.4412 72.0374 47.5174 72.0374 49.0891V49.0939C72.0374 50.6892 72.9154 51.7088 74.3691 51.7088ZM74.3125 47.1728C75.063 47.1728 75.6199 47.6495 75.7049 48.6549H72.8918C72.9814 47.6873 73.5573 47.1728 74.3125 47.1728ZM80.8828 51.6191H81.7041V47.2106H82.8605V46.5309H81.7041V45.9881C81.7041 45.4311 81.9401 45.1432 82.5254 45.1432C82.6717 45.1432 82.8086 45.1479 82.9077 45.1668V44.5107C82.7378 44.4776 82.5584 44.4635 82.3602 44.4635C81.3926 44.4635 80.8828 44.9496 80.8828 45.9645V46.5309H80.0379V47.2106H80.8828V51.6191ZM84.0452 51.6191H84.8665V48.4661C84.8665 47.7203 85.4235 47.2247 86.207 47.2247C86.3864 47.2247 86.5421 47.2436 86.7121 47.2719V46.4742C86.6318 46.4601 86.4572 46.4412 86.3014 46.4412C85.6123 46.4412 85.1356 46.7527 84.9421 47.2861H84.8665V46.5309H84.0452V51.6191ZM89.6763 51.7088C91.1253 51.7088 92.0221 50.7081 92.0221 49.0797V49.0703C92.0221 47.4371 91.1253 46.4412 89.6763 46.4412C88.2272 46.4412 87.3304 47.4371 87.3304 49.0703V49.0797C87.3304 50.7081 88.2272 51.7088 89.6763 51.7088ZM89.6763 50.9819C88.7134 50.9819 88.1706 50.2786 88.1706 49.0797V49.0703C88.1706 47.8666 88.7134 47.1681 89.6763 47.1681C90.6392 47.1681 91.182 47.8666 91.182 49.0703V49.0797C91.182 50.2786 90.6392 50.9819 89.6763 50.9819ZM93.2965 51.6191H94.1178V48.4661C94.1178 47.7486 94.6229 47.1681 95.2884 47.1681C95.9303 47.1681 96.3457 47.5598 96.3457 48.164V51.6191H97.167V48.3481C97.167 47.7014 97.6343 47.1681 98.3423 47.1681C99.0597 47.1681 99.4043 47.541 99.4043 48.2914V51.6191H100.226V48.1026C100.226 47.0359 99.645 46.4412 98.6066 46.4412C97.9033 46.4412 97.3228 46.7952 97.049 47.3333H96.9735C96.7375 46.8046 96.256 46.4412 95.5669 46.4412C94.9014 46.4412 94.4199 46.7574 94.1934 47.305H94.1178V46.5309H93.2965V51.6191ZM106.772 51.7796C108.292 51.7796 109.288 50.9866 109.288 49.7122V49.7075C109.288 48.7257 108.726 48.1546 107.306 47.8383L106.55 47.6684C105.625 47.4654 105.252 47.0973 105.252 46.5545V46.5497C105.252 45.837 105.909 45.4358 106.758 45.4311C107.646 45.4264 108.212 45.8701 108.306 46.4695L108.316 46.5309H109.165L109.161 46.4648C109.09 45.45 108.141 44.6476 106.782 44.6476C105.375 44.6476 104.389 45.4453 104.384 46.5733V46.5781C104.384 47.5646 104.974 48.1923 106.338 48.4944L107.093 48.6596C108.028 48.8673 108.42 49.2543 108.42 49.8207V49.8255C108.42 50.5193 107.745 50.996 106.819 50.996C105.838 50.996 105.13 50.5665 105.068 49.8868L105.064 49.8349H104.214L104.219 49.8868C104.318 50.996 105.281 51.7796 106.772 51.7796ZM110.647 51.6191H111.469V48.6077C111.469 47.7156 111.983 47.1681 112.795 47.1681C113.607 47.1681 113.985 47.607 113.985 48.5227V51.6191H114.806V48.3245C114.806 47.1162 114.169 46.4412 113.026 46.4412C112.276 46.4412 111.799 46.7574 111.544 47.2955H111.469V44.5107H110.647V51.6191ZM118.384 51.7088C119.833 51.7088 120.729 50.7081 120.729 49.0797V49.0703C120.729 47.4371 119.833 46.4412 118.384 46.4412C116.935 46.4412 116.038 47.4371 116.038 49.0703V49.0797C116.038 50.7081 116.935 51.7088 118.384 51.7088ZM118.384 50.9819C117.421 50.9819 116.878 50.2786 116.878 49.0797V49.0703C116.878 47.8666 117.421 47.1681 118.384 47.1681C119.347 47.1681 119.889 47.8666 119.889 49.0703V49.0797C119.889 50.2786 119.347 50.9819 118.384 50.9819ZM122.004 53.3183H122.825V50.8167H122.901C123.179 51.3595 123.788 51.7088 124.487 51.7088C125.78 51.7088 126.62 50.6751 126.62 49.0797V49.0703C126.62 47.4843 125.775 46.4412 124.487 46.4412C123.779 46.4412 123.212 46.7763 122.901 47.3427H122.825V46.5309H122.004V53.3183ZM124.298 50.9819C123.373 50.9819 122.806 50.255 122.806 49.0797V49.0703C122.806 47.895 123.373 47.1681 124.298 47.1681C125.228 47.1681 125.78 47.8855 125.78 49.0703V49.0797C125.78 50.2644 125.228 50.9819 124.298 50.9819ZM128.338 45.5491C128.65 45.5491 128.905 45.2942 128.905 44.9827C128.905 44.6712 128.65 44.4163 128.338 44.4163C128.027 44.4163 127.772 44.6712 127.772 44.9827C127.772 45.2942 128.027 45.5491 128.338 45.5491ZM127.923 51.6191H128.744V46.5309H127.923V51.6191ZM130.632 51.6191H131.453V47.2106H132.61V46.5309H131.453V45.9881C131.453 45.4311 131.689 45.1432 132.275 45.1432C132.421 45.1432 132.558 45.1479 132.657 45.1668V44.5107C132.487 44.4776 132.308 44.4635 132.11 44.4635C131.142 44.4635 130.632 44.9496 130.632 45.9645V46.5309H129.787V47.2106H130.632V51.6191ZM134.229 53.4033C135.13 53.4033 135.55 53.0729 135.971 51.9306L137.958 46.5309H137.094L135.701 50.7175H135.626L134.229 46.5309H133.351L135.234 51.6238L135.14 51.9259C134.956 52.5112 134.673 52.7236 134.205 52.7236C134.092 52.7236 133.965 52.7189 133.865 52.7V53.3749C133.979 53.3938 134.12 53.4033 134.229 53.4033ZM141.819 51.6191H142.64V48.6077C142.64 47.7156 143.154 47.1681 143.966 47.1681C144.778 47.1681 145.156 47.607 145.156 48.5227V51.6191H145.977V48.3245C145.977 47.1162 145.34 46.4412 144.198 46.4412C143.447 46.4412 142.97 46.7574 142.715 47.2955H142.64V44.5107H141.819V51.6191ZM149.541 51.7088C150.74 51.7088 151.466 51.0291 151.641 50.3399L151.651 50.3022H150.829L150.81 50.3447C150.673 50.6515 150.249 50.9772 149.56 50.9772C148.653 50.9772 148.073 50.3635 148.049 49.311H151.712V48.99C151.712 47.4702 150.872 46.4412 149.489 46.4412C148.106 46.4412 147.209 47.5174 147.209 49.0891V49.0939C147.209 50.6892 148.087 51.7088 149.541 51.7088ZM149.484 47.1728C150.235 47.1728 150.791 47.6495 150.876 48.6549H148.063C148.153 47.6873 148.729 47.1728 149.484 47.1728ZM152.986 51.6191H153.808V48.4661C153.808 47.7203 154.365 47.2247 155.148 47.2247C155.327 47.2247 155.483 47.2436 155.653 47.2719V46.4742C155.573 46.4601 155.398 46.4412 155.242 46.4412C154.553 46.4412 154.077 46.7527 153.883 47.2861H153.808V46.5309H152.986V51.6191ZM158.603 51.7088C159.802 51.7088 160.529 51.0291 160.704 50.3399L160.713 50.3022H159.892L159.873 50.3447C159.736 50.6515 159.311 50.9772 158.622 50.9772C157.716 50.9772 157.135 50.3635 157.112 49.311H160.774V48.99C160.774 47.4702 159.934 46.4412 158.551 46.4412C157.168 46.4412 156.271 47.5174 156.271 49.0891V49.0939C156.271 50.6892 157.149 51.7088 158.603 51.7088ZM158.547 47.1728C159.297 47.1728 159.854 47.6495 159.939 48.6549H157.126C157.215 47.6873 157.791 47.1728 158.547 47.1728ZM162.719 51.6663C163.059 51.6663 163.333 51.3878 163.333 51.0527C163.333 50.7128 163.059 50.4391 162.719 50.4391C162.384 50.4391 162.105 50.7128 162.105 51.0527C162.105 51.3878 162.384 51.6663 162.719 51.6663Z" fill="#45506B"/>
<path d="M3.7905 11.1888C5.603 11.1888 6.76278 10.261 6.76278 8.77214V8.76674C6.76278 7.61235 6.09388 6.95424 4.4594 6.60361L3.61249 6.41481C2.60374 6.19903 2.19377 5.82143 2.19377 5.24423V5.23884C2.19377 4.50521 2.86807 4.07906 3.77971 4.07906C4.72372 4.07366 5.33328 4.53757 5.43577 5.17411L5.44656 5.24423H6.61714L6.61174 5.16871C6.52543 3.96038 5.44656 3.02716 3.79589 3.02716C2.14522 3.02716 0.980046 3.95499 0.974651 5.29818V5.30357C0.974651 6.45257 1.65434 7.1862 3.23488 7.52065L4.08719 7.70406C5.11751 7.92522 5.53827 8.31362 5.53827 8.91239V8.91778C5.53827 9.64063 4.83161 10.1369 3.83905 10.1369C2.79794 10.1369 2.04813 9.68378 1.98339 8.97712L1.978 8.91778H0.791244L0.796638 8.98791C0.904525 10.2987 2.03194 11.1888 3.7905 11.1888ZM8.43891 11H9.60949V7.5638C9.60949 6.61979 10.1435 6.03181 11.0012 6.03181C11.8589 6.03181 12.2635 6.5119 12.2635 7.48289V11H13.4287V7.20778C13.4287 5.81064 12.7058 5.02846 11.395 5.02846C10.5427 5.02846 9.9817 5.40606 9.6958 6.03181H9.60949V2.84375H8.43891V11ZM17.7103 11.1133C19.4257 11.1133 20.4776 9.96429 20.4776 8.07626V8.06548C20.4776 6.17746 19.4203 5.02846 17.7103 5.02846C15.9949 5.02846 14.9376 6.18285 14.9376 8.06548V8.07626C14.9376 9.96429 15.9895 11.1133 17.7103 11.1133ZM17.7103 10.1369C16.7015 10.1369 16.1351 9.3763 16.1351 8.07626V8.06548C16.1351 6.76544 16.7015 6.00484 17.7103 6.00484C18.7136 6.00484 19.2854 6.76544 19.2854 8.06548V8.07626C19.2854 9.37091 18.7136 10.1369 17.7103 10.1369ZM22.0404 12.9528H23.211V10.0722H23.2973C23.6102 10.7033 24.2953 11.0971 25.099 11.0971C26.5879 11.0971 27.5265 9.93192 27.5265 8.07626V8.06548C27.5265 6.22061 26.5771 5.03925 25.099 5.03925C24.2791 5.03925 23.6372 5.42225 23.2973 6.06417H23.211V5.14174H22.0404V12.9528ZM24.77 10.0991C23.7936 10.0991 23.1894 9.32775 23.1894 8.07626V8.06548C23.1894 6.81399 23.7936 6.0426 24.77 6.0426C25.7463 6.0426 26.3343 6.8032 26.3343 8.06548V8.07626C26.3343 9.33315 25.7463 10.0991 24.77 10.0991ZM34.4174 11.1133C35.8092 11.1133 36.8449 10.3743 36.8449 9.28999V9.2792C36.8449 8.43229 36.3055 7.95219 35.178 7.68787L34.2502 7.47749C33.5921 7.32106 33.3224 7.09449 33.3224 6.72768V6.71689C33.3224 6.24758 33.7863 5.92932 34.4282 5.92932C35.0863 5.92932 35.5017 6.23679 35.615 6.64676V6.65755H36.7316V6.65216C36.6291 5.69736 35.7714 5.02846 34.4336 5.02846C33.1066 5.02846 32.1572 5.76209 32.1572 6.78162V6.78702C32.1572 7.64472 32.6697 8.14639 33.7755 8.39993L34.7087 8.6157C35.3884 8.77214 35.6635 9.02028 35.6635 9.38709V9.39788C35.6635 9.87798 35.1619 10.207 34.439 10.207C33.7431 10.207 33.317 9.91034 33.1713 9.46801L33.1659 9.46261H31.9954V9.46801C32.1087 10.4498 33.0041 11.1133 34.4174 11.1133ZM40.8676 11.1133C42.3672 11.1133 43.1763 10.2502 43.3705 9.47879L43.3813 9.43025L42.2539 9.43564L42.2323 9.47879C42.0921 9.78088 41.6443 10.1531 40.8945 10.1531C39.9289 10.1531 39.314 9.50037 39.2924 8.37835H43.4461V7.96838C43.4461 6.20982 42.4427 5.02846 40.8082 5.02846C39.1737 5.02846 38.1164 6.25298 38.1164 8.08166V8.08705C38.1164 9.94271 39.1522 11.1133 40.8676 11.1133ZM40.8136 5.98865C41.6066 5.98865 42.1946 6.49572 42.2863 7.54222H39.3086C39.4111 6.53348 40.0153 5.98865 40.8136 5.98865ZM47.2152 11.0378C47.4418 11.0378 47.6575 11.0108 47.8463 10.9784V10.0452C47.6845 10.0614 47.582 10.0668 47.404 10.0668C46.8268 10.0668 46.5895 9.80785 46.5895 9.17671V6.06417H47.8463V5.14174H46.5895V3.66369H45.3973V5.14174H44.4803V6.06417H45.3973V9.45722C45.3973 10.5846 45.9259 11.0378 47.2152 11.0378ZM51.6101 11.0378C51.8366 11.0378 52.0524 11.0108 52.2412 10.9784V10.0452C52.0794 10.0614 51.9769 10.0668 51.7989 10.0668C51.2217 10.0668 50.9843 9.80785 50.9843 9.17671V6.06417H52.2412V5.14174H50.9843V3.66369H49.7922V5.14174H48.8751V6.06417H49.7922V9.45722C49.7922 10.5846 50.3208 11.0378 51.6101 11.0378ZM54.3813 4.09524C54.7804 4.09524 55.1149 3.76618 55.1149 3.367C55.1149 2.96243 54.7804 2.63337 54.3813 2.63337C53.9767 2.63337 53.6476 2.96243 53.6476 3.367C53.6476 3.76618 53.9767 4.09524 54.3813 4.09524ZM53.7933 11H54.9585V5.14174H53.7933V11ZM56.8288 11H57.9994V7.5638C57.9994 6.61979 58.5334 6.03181 59.3911 6.03181C60.2488 6.03181 60.6534 6.5119 60.6534 7.48289V11H61.8185V7.20778C61.8185 5.81064 61.0957 5.02846 59.7849 5.02846C58.9326 5.02846 58.3716 5.40606 58.0857 6.03181H57.9994V5.14174H56.8288V11ZM66.0948 13.066C67.7562 13.066 68.8081 12.2137 68.8081 10.8813V5.14174H67.6429V6.10193H67.5728C67.233 5.44382 66.5964 5.03925 65.7765 5.03925C64.2553 5.03925 63.3221 6.22061 63.3221 7.89286V7.90365C63.3221 9.55432 64.2499 10.7141 65.7549 10.7141C66.5587 10.7141 67.206 10.3581 67.562 9.72154H67.6483V10.8759C67.6483 11.6743 67.0765 12.1274 66.1109 12.1274C65.318 12.1274 64.8433 11.8415 64.7462 11.4369L64.7408 11.4262H63.5594L63.5486 11.4369C63.6889 12.4133 64.6059 13.066 66.0948 13.066ZM66.0786 9.74851C65.0806 9.74851 64.5196 8.98791 64.5196 7.89825V7.88746C64.5196 6.79781 65.0806 6.03181 66.0786 6.03181C67.0657 6.03181 67.6699 6.79781 67.6699 7.88746V7.89825C67.6699 8.9933 67.0711 9.74851 66.0786 9.74851ZM72.7876 11.1133C74.1794 11.1133 75.2151 10.3743 75.2151 9.28999V9.2792C75.2151 8.43229 74.6756 7.95219 73.5482 7.68787L72.6204 7.47749C71.9623 7.32106 71.6926 7.09449 71.6926 6.72768V6.71689C71.6926 6.24758 72.1565 5.92932 72.7984 5.92932C73.4565 5.92932 73.8719 6.23679 73.9852 6.64676V6.65755H75.1018V6.65216C74.9993 5.69736 74.1416 5.02846 72.8038 5.02846C71.4768 5.02846 70.5274 5.76209 70.5274 6.78162V6.78702C70.5274 7.64472 71.0399 8.14639 72.1457 8.39993L73.0789 8.6157C73.7586 8.77214 74.0337 9.02028 74.0337 9.38709V9.39788C74.0337 9.87798 73.532 10.207 72.8092 10.207C72.1133 10.207 71.6872 9.91034 71.5415 9.46801L71.5361 9.46261H70.3656V9.46801C70.4788 10.4498 71.3743 11.1133 72.7876 11.1133Z" fill="#45506B"/>
</svg>
