<svg width="100" height="28" viewBox="0 0 100 28" fill="none" xmlns="http://www.w3.org/2000/svg">
<path d="M10.4802 7.505C10.4802 5.78922 10.4802 4.83381 10.4802 4.64372C11.564 4.42647 12.3837 3.47847 12.3837 2.34531C12.3837 1.05169 11.3147 0 10.0038 0C8.69041 0 7.62144 1.05169 7.62144 2.34531C7.62144 3.47847 8.44353 4.42647 9.52731 4.64372C9.52731 4.83381 9.52731 5.78922 9.52731 7.505C4.101 7.505 1.08666 7.505 0.484281 7.505C0.220125 7.505 0.0078125 7.71731 0.0078125 7.97653C0.0078125 9.28991 0.0078125 19.7969 0.0078125 21.1103C0.0078125 21.3695 0.220125 21.5793 0.484281 21.5793C2.38769 21.5793 17.6199 21.5793 19.5233 21.5793C19.7874 21.5793 19.9973 21.3695 19.9973 21.1103C19.9973 19.7969 19.9973 9.28991 19.9973 7.97653C19.9973 7.71731 19.7874 7.505 19.5233 7.505C18.3185 7.505 15.3017 7.505 10.4802 7.505ZM10.0038 0.938125C10.7913 0.938125 11.4307 1.57013 11.4307 2.34531C11.4307 3.12297 10.7913 3.7525 10.0038 3.7525C9.21625 3.7525 8.57438 3.12297 8.57438 2.34531C8.57438 1.57013 9.21625 0.938125 10.0038 0.938125ZM19.0468 20.6388H0.96075V8.44313H19.0468V20.6388Z" fill="#212B36"/>
<path d="M5.24401 10.3194C3.93064 10.3194 2.86414 11.3711 2.86414 12.6647C2.86414 13.9583 3.93064 15.0125 5.24401 15.0125C6.55492 15.0125 7.62142 13.9583 7.62142 12.6647C7.62142 11.3711 6.55492 10.3194 5.24401 10.3194ZM3.8146 12.6647C3.8146 11.8895 4.45648 11.2575 5.24401 11.2575C6.02907 11.2575 6.67095 11.8895 6.67095 12.6647C6.67095 13.4423 6.02907 14.0743 5.24401 14.0743C4.45648 14.0743 3.8146 13.4423 3.8146 12.6647Z" fill="#212B36"/>
<path d="M17.1434 12.6647C17.1434 11.3711 16.0744 10.3194 14.7635 10.3194C13.4502 10.3194 12.3837 11.3711 12.3837 12.6647C12.3837 13.9583 13.4502 15.0125 14.7635 15.0125C16.0744 15.0125 17.1434 13.9583 17.1434 12.6647ZM16.1905 12.6647C16.1905 13.4423 15.5511 14.0743 14.7635 14.0743C13.976 14.0743 13.3366 13.4423 13.3366 12.6647C13.3366 11.8895 13.976 11.2575 14.7635 11.2575C15.5511 11.2575 16.1905 11.8895 16.1905 12.6647Z" fill="#212B36"/>
<path d="M8.57437 17.1726C7.84115 16.827 7.4338 16.6344 7.35233 16.5949C7.1178 16.4838 6.83143 16.5826 6.72033 16.8146C6.6043 17.0492 6.70552 17.3306 6.94005 17.4417C7.08324 17.5084 8.22627 18.049 8.36699 18.1157C8.49783 18.1774 8.6509 18.1774 8.77927 18.1157C8.86074 18.0786 9.26808 17.8861 10.0013 17.5405C10.7345 17.8861 11.1419 18.0786 11.2233 18.1157C11.2875 18.1478 11.3591 18.1626 11.4307 18.1626C11.4998 18.1626 11.5714 18.1478 11.6356 18.1157C11.7788 18.049 12.9218 17.5084 13.065 17.4417C13.302 17.3306 13.4032 17.0492 13.2897 16.8146C13.1761 16.5826 12.8922 16.4838 12.6552 16.5949C12.5713 16.6344 12.1639 16.827 11.4307 17.1726C10.695 16.827 10.2877 16.6344 10.2062 16.5949C10.0754 16.5357 9.92477 16.5357 9.79393 16.5949C9.63346 16.6739 9.22612 16.8665 8.57437 17.1726Z" fill="#212B36"/>
<path d="M36.0072 21.2757H39.656L34.0642 5.7522H30.2352L24.6484 21.2757H28.2972L29.2527 18.3502H35.0493L36.0072 21.2757ZM30.1587 15.5062L32.151 9.34917L34.1433 15.5062H30.1587Z" fill="#212B36"/>
<path d="M43.1221 11.8302C43.1221 11.7735 43.1221 11.4797 43.1221 10.9514L39.8115 10.9242V27.4846L43.1221 27.5117C43.1221 23.226 43.1221 20.8461 43.1221 20.3696C43.8998 21.0683 44.8823 21.483 46.0723 21.483C48.9187 21.483 51.1702 19.1032 51.1702 16.1012C51.1702 13.0992 48.9187 10.7193 46.0723 10.7193C44.8823 10.7193 43.8998 11.134 43.1221 11.8302ZM42.9666 16.1012C42.9666 14.731 44.0553 13.6423 45.4255 13.6423C46.7956 13.6423 47.8843 14.731 47.8843 16.1012C47.8843 17.4713 46.7956 18.5601 45.4255 18.5601C44.0553 18.5601 42.9666 17.4713 42.9666 16.1012Z" fill="#212B36"/>
<path d="M55.7745 11.8302C55.7745 11.7735 55.7745 11.4797 55.7745 10.9514L52.4639 10.9242V27.4846L55.7745 27.5117C55.7745 23.226 55.7745 20.8461 55.7745 20.3696C56.5521 21.0683 57.5347 21.483 58.7246 21.483C61.5711 21.483 63.8226 19.1032 63.8226 16.1012C63.8226 13.0992 61.5711 10.7193 58.7246 10.7193C57.5347 10.7193 56.5521 11.134 55.7745 11.8302ZM55.6214 16.1012C55.6214 14.731 56.7077 13.6423 58.0778 13.6423C59.4504 13.6423 60.5367 14.731 60.5367 16.1012C60.5367 17.4713 59.4504 18.5601 58.0778 18.5601C56.7077 18.5601 55.6214 17.4713 55.6214 16.1012Z" fill="#212B36"/>
<path d="M65.1162 21.2757H68.4293V3.55252H65.1162V21.2757Z" fill="#212B36"/>
<path d="M73.9642 7.38155C73.9642 6.37183 73.1372 5.56949 72.1521 5.56949C71.1696 5.56949 70.3425 6.37183 70.3425 7.38155C70.3425 8.36411 71.1696 9.19361 72.1521 9.19361C73.1372 9.19361 73.9642 8.36411 73.9642 7.38155ZM70.4981 21.2757H73.784V10.9242H70.4981V21.2757Z" fill="#212B36"/>
<path d="M86.5918 17.0837C86.2511 17.0837 83.5182 17.0837 83.1775 17.0837C82.8393 17.9626 81.9851 18.5329 80.926 18.5601C79.5015 18.5329 78.4671 17.4985 78.4671 16.1012C78.4671 14.7039 79.5015 13.6695 80.926 13.6423C81.9851 13.6695 82.8393 14.2373 83.1775 15.1186C83.5182 15.1186 86.2511 15.1186 86.5918 15.1186C86.1523 12.5314 84.0292 10.7193 80.926 10.7193C77.4574 10.7193 75.1541 12.9955 75.1541 16.1012C75.1541 19.2069 77.4574 21.483 80.926 21.483C84.0292 21.483 86.1523 19.671 86.5918 17.0837Z" fill="#212B36"/>
<path d="M99.2195 18.5847C98.78 18.5847 98.3134 18.4292 98.3134 17.5775C98.3134 17.1331 98.3134 14.9162 98.3134 10.9242H95.0275C95.0275 11.4698 95.0275 11.771 95.0275 11.8302C94.2499 11.134 93.2673 10.7193 92.0774 10.7193C89.2037 10.7193 86.9547 13.0992 86.9547 16.1012C86.9547 19.1032 89.2037 21.483 92.0774 21.483C93.5784 21.483 94.7955 20.8091 95.6225 19.7228C96.2693 20.7844 97.4074 21.483 98.8047 21.483C99.1405 21.483 99.4515 21.3794 99.6861 21.2757C99.6861 21.0955 99.6861 20.1993 99.6861 18.5847C99.4367 18.5847 99.2812 18.5847 99.2195 18.5847ZM90.2653 16.1012C90.2653 14.731 91.354 13.6423 92.7242 13.6423C94.0696 13.6423 95.1831 14.731 95.1831 16.1012C95.1831 17.4713 94.0696 18.5601 92.7242 18.5601C91.354 18.5601 90.2653 17.4713 90.2653 16.1012Z" fill="#212B36"/>
</svg>
